<svg xmlns="http://www.w3.org/2000/svg" width="160" height="160" viewBox="0 0 160 160" fill="none">
<!-- <path d="M-81.0708 261.152C-81.0708 261.152 131.074 230.395 185.46 101.575C237.203 -21.0045 452.104 -46.8696 452.104 -46.8696" stroke="#EF5944" stroke-width="4.32558" stroke-miterlimit="10"/> -->
<path d="M-81.0708 240.853C-81.0708 240.853 116.339 212.009 166.957 91.8473C215.156 -22.5227 415.153 -46.8696 415.153 -46.8696" stroke="#EF5944" stroke-width="4.32558" stroke-miterlimit="10"/>
<path d="M-81.0708 220.612C-81.0708 220.612 101.603 193.622 148.509 82.1194C193.109 -24.0409 378.202 -46.8696 378.202 -46.8696" stroke="#EF5944" stroke-width="4.32558" stroke-miterlimit="10"/>
<path d="M-81.0708 200.313C-81.0708 200.313 86.9243 175.178 130.005 72.3359C171.062 -25.5027 341.307 -46.8696 341.307 -46.8696" stroke="#EF5944" stroke-width="4.32558" stroke-miterlimit="10"/>
<path d="M-81.0708 180.07C-81.0708 180.07 72.1887 156.792 111.558 62.6644C149.015 -27.0209 304.356 -46.8696 304.356 -46.8696" stroke="#EF5944" stroke-width="4.32558" stroke-miterlimit="10"/>
<path d="M-81.0708 159.828C-81.0708 159.828 57.4533 138.461 93.0546 52.9366C126.968 -28.5391 267.405 -46.8696 267.405 -46.8696" stroke="#EF5944" stroke-width="4.32558" stroke-miterlimit="10"/>
<path d="M-81.0708 139.53C-81.0708 139.53 42.7742 120.018 74.6072 43.2091C104.865 -30.0009 230.454 -46.8696 230.454 -46.8696" stroke="#EF5944" stroke-width="4.32558" stroke-miterlimit="10"/>
<path d="M-81.0708 119.287C-81.0708 119.287 28.0387 101.631 56.1035 33.4816C82.8185 -31.5191 193.559 -46.8696 193.559 -46.8696" stroke="#EF5944" stroke-width="4.32558" stroke-miterlimit="10"/>
</svg>