<svg xmlns="http://www.w3.org/2000/svg" width="160" height="124" viewBox="0 0 160 124" fill="none">
<path d="M-200.071 121.853C-200.071 121.853 -2.66119 93.0088 47.9567 -27.1527C96.1559 -141.523 296.153 -165.87 296.153 -165.87" stroke="#F59E0B" stroke-width="4.32558" stroke-miterlimit="10"/>
<path d="M-200.071 142.152C-200.071 142.152 12.0741 111.395 66.4604 -17.4253C118.203 -140.005 333.104 -165.87 333.104 -165.87" stroke="#F59E0B" stroke-width="4.32558" stroke-miterlimit="10"/>
<path d="M-200.071 162.396C-200.071 162.396 26.7533 129.783 84.9076 -7.69737C140.25 -138.542 370.054 -165.87 370.054 -165.87" stroke="#F59E0B" stroke-width="4.32558" stroke-miterlimit="10"/>
<path d="M-200.071 182.636C-200.071 182.636 41.4886 148.17 103.411 1.97366C162.297 -137.024 407.005 -165.87 407.005 -165.87" stroke="#F59E0B" stroke-width="4.32558" stroke-miterlimit="10"/>
<path d="M-200.071 202.935C-200.071 202.935 56.2243 166.557 121.915 11.7576C184.343 -135.506 443.901 -165.87 443.901 -165.87" stroke="#F59E0B" stroke-width="4.32558" stroke-miterlimit="10"/>
<path d="M-200.071 223.179C-200.071 223.179 70.9032 184.943 140.362 21.429C206.391 -134.044 480.852 -165.87 480.852 -165.87" stroke="#F59E0B" stroke-width="4.32558" stroke-miterlimit="10"/>
<path d="M-200.071 243.423C-200.071 243.423 85.6389 203.33 158.866 31.1565C228.437 -132.526 517.803 -165.87 517.803 -165.87" stroke="#F59E0B" stroke-width="4.32558" stroke-miterlimit="10"/>
</svg>
